HIERARCHY
ROOT hip
{
	OFFSET 0.000000 0.000000 0.000000 
	CHANNELS 6 Xposition Yposition Zposition Xrotation Zrotation Yrotation
	JOINT abdomen
	{
		OFFSET 0.000000 3.402643 0.000000 
		CHANNELS 3 Xrotation Zrotation Yrotation
		JOINT chest
		{
			OFFSET 0.000000 8.438565 -0.680529 
			CHANNELS 3 Xrotation Zrotation Yrotation
			JOINT neck
			{
				OFFSET 0.000000 10.207942 -0.272212 
				CHANNELS 3 Xrotation Zrotation Yrotation
				JOINT head
				{
					OFFSET 0.000000 3.130431 0.000000 
					CHANNELS 3 Xrotation Zrotation Yrotation
					End Site
					{
						OFFSET 0.000000 3.130435 0.000000 
					}
				}
			}
			JOINT lCollar
			{
				OFFSET 3.470700 6.669187 -0.816635 
				CHANNELS 3 Yrotation Zrotation Xrotation
				JOINT lShldr
				{
					OFFSET 3.198488 0.000000 0.000000 
					CHANNELS 3 Zrotation Yrotation Xrotation
					JOINT lForeArm
					{
						OFFSET 10.139888 0.000000 0.000000 
						CHANNELS 3 Yrotation Zrotation Xrotation
						JOINT lHand
						{
							OFFSET 8.370511 0.000000 0.000000 
							CHANNELS 3 Zrotation Yrotation Xrotation
							End Site
							{
								OFFSET 4.083176 0.000000 0.000000 
							}
						}
					}
				}
			}
			JOINT rCollar
			{
				OFFSET -3.470700 6.669187 -0.816635 
				CHANNELS 3 Yrotation Zrotation Xrotation
				JOINT rShldr
				{
					OFFSET -3.198488 0.000000 0.000000 
					CHANNELS 3 Zrotation Yrotation Xrotation
					JOINT rForeArm
					{
						OFFSET -10.139888 0.000000 0.000000 
						CHANNELS 3 Yrotation Zrotation Xrotation
						JOINT rHand
						{
							OFFSET -8.370511 0.000000 0.000000 
							CHANNELS 3 Zrotation Yrotation Xrotation
							End Site
							{
								OFFSET -4.083176 0.000000 0.000000 
							}
						}
					}
				}
			}
		}
	}
	JOINT lThigh
	{
		OFFSET 5.308129 -1.633274 1.361059 
		CHANNELS 3 Xrotation Zrotation Yrotation
		JOINT lShin
		{
			OFFSET -2.041588 -20.007561 0.000000 
			CHANNELS 3 Xrotation Zrotation Yrotation
			JOINT lFoot
			{
				OFFSET 0.000000 -19.190928 -1.224953 
				CHANNELS 3 Xrotation Yrotation Zrotation
				End Site
				{
					OFFSET 0.000000 -2.449906 4.627600 
				}
			}
		}
	}
	JOINT rThigh
	{
		OFFSET -5.308129 -1.633274 1.361059 
		CHANNELS 3 Xrotation Zrotation Yrotation
		JOINT rShin
		{
			OFFSET 2.041588 -20.007561 0.000000 
			CHANNELS 3 Xrotation Zrotation Yrotation
			JOINT rFoot
			{
				OFFSET 0.000000 -19.190928 -1.224953 
				CHANNELS 3 Xrotation Yrotation Zrotation
				End Site
				{
					OFFSET 0.000000 -2.449906 4.627600 
				}
			}
		}
	}
}
MOTION
Frames: 8
Frame Time: 0.033333
-9.310606 51.994366 -64.435547 171.376953 179.472656 4.482512 18.005741 -10.941339 -4.084774 -23.339846 8.750001 1.376953 51.063168 8.107644 2.471410 -61.552734 -3.808593 -33.486328 2.000000 -2.000000 0.000000 -53.896484 1.406250 -119.316162 -57.251335 -1.365644 -2.166200 -54.426098 23.513254 -76.822472 -2.000000 2.000000 0.000000 55.234375 -40.556641 -13.164063 82.878639 0.600620 -2.973856 -45.749142 -58.012512 45.601547 2.730522 2.096572 17.248590 10.161084 -5.731247 -1.025585 -10.626206 7.395189 1.438027 3.147971 -14.457465 -39.746151 11.416256 4.599829 0.918146 -4.659043 -2.280458 10.443766 
-9.370951 51.978600 -64.473259 171.201172 179.296875 5.517698 17.962322 -11.281067 -3.821847 -23.173828 8.564453 1.563954 51.063168 8.107644 2.471410 -61.523441 -3.642578 -32.832031 2.000000 -2.000000 0.000000 -54.013676 1.728516 -118.750000 -57.074654 -1.355117 -2.489735 -53.570747 23.480925 -76.843086 -2.000000 2.000000 0.000000 57.158203 -41.220703 -15.312500 83.228371 0.460179 -2.913532 -45.287395 -57.746925 45.210209 2.310966 2.320194 16.382423 10.508239 -5.709875 -1.045391 -10.883658 7.177587 1.554633 3.192948 -14.570748 -40.490185 11.946543 4.600038 1.125225 -5.209062 -2.592327 10.647677 
-9.451549 51.978600 -64.492233 171.025391 179.130859 6.357570 17.961985 -11.537548 -3.724014 -22.812500 8.369142 1.767578 51.063168 8.107644 2.471410 -61.523441 -3.476562 -31.279299 2.000000 -2.000000 0.000000 -54.111328 1.894531 -118.739914 -56.543327 -1.503167 -2.344225 -51.676418 23.105639 -77.529274 -2.000000 2.000000 0.000000 58.564453 -41.992188 -17.392578 83.575111 0.441085 -3.090718 -45.190399 -57.781822 44.860706 1.628733 2.360658 15.303373 11.044855 -5.700037 -1.071574 -11.153952 7.157105 1.401364 3.030641 -14.457150 -41.527733 12.302063 4.583118 1.005267 -5.247951 -2.830085 10.918061 
-9.551852 51.986488 -64.476501 170.849609 178.955078 7.382990 18.084978 -11.879540 -3.481111 -22.646486 8.193360 1.943360 51.063168 8.107644 2.471410 -61.679688 -3.281250 -28.134768 2.000000 -2.000000 0.000000 -53.935547 1.542969 -118.916008 -56.200981 -1.511782 -2.323910 -49.595768 22.626173 -78.082077 -2.000000 2.000000 0.000000 60.751949 -42.734375 -20.000002 83.755989 0.450994 -2.923841 -45.120823 -57.220211 44.643898 1.131705 2.498037 13.900430 11.580358 -5.679924 -1.107573 -11.185046 7.144914 1.397239 3.079792 -14.506608 -42.757374 12.828663 4.563261 1.054594 -5.404173 -2.797547 10.306355 
-9.659412 51.994366 -64.440277 -9.345703 1.386719 -171.455078 18.249599 -12.117760 -3.376587 -22.480469 7.841798 2.099610 51.063168 8.107644 2.471410 -61.679688 -3.281250 -22.861332 2.000000 -2.000000 0.000000 -54.072266 1.884766 -116.698891 -57.597713 -1.336297 -2.334375 -46.907692 24.889305 -76.304924 -2.000000 2.000000 0.000000 62.500000 -43.486328 -22.164925 84.107834 0.432060 -2.934715 -45.002766 -57.273785 44.392506 0.457444 2.598890 12.501623 11.915594 -5.681601 -1.157376 -11.330667 7.324134 1.290806 3.543363 -14.754990 -44.468315 13.354657 5.011780 1.130421 -6.243762 -2.592921 9.743266 
-9.805017 52.017994 -64.395271 -9.511719 1.542969 -170.429688 18.378441 -12.295693 -3.070048 -22.314455 7.656250 2.275391 51.063168 8.107644 2.471410 -61.826168 -3.085938 -16.201696 2.000000 -2.000000 0.000000 -55.156250 2.568359 -112.353516 -60.932022 -0.934769 -2.494632 -43.382137 29.839373 -70.469368 -2.000000 2.000000 0.000000 64.775391 -44.355469 -24.667971 84.459671 0.422875 -2.945024 -45.035637 -57.177254 44.068268 -0.097678 2.540878 10.910079 12.073535 -5.692091 -1.152573 -11.316216 7.801345 0.767383 3.206364 -14.731492 -46.146801 13.521523 4.533326 1.086557 -5.807974 -2.225186 9.185897 
-9.950729 52.049500 -64.299683 -9.697266 1.728516 -169.228226 18.544313 -12.545281 -2.990788 -22.148439 7.294923 2.431641 51.063168 8.107644 2.471410 -61.816410 -2.910156 -8.496094 2.000000 -2.000000 0.000000 -56.591797 4.169922 -107.743431 -64.986275 -1.035659 -2.547433 -39.087261 34.992165 -63.242531 -2.000000 2.000000 0.000000 67.021484 -45.068359 -27.392580 84.459671 0.422875 -2.945024 -44.599705 -56.903351 43.646820 -0.565529 2.669019 9.318708 12.051067 -5.692698 -1.170407 -11.236379 8.119746 0.551306 3.352838 -14.614375 -48.113068 13.704970 4.522884 1.265572 -5.988018 -1.908580 8.729660 
-10.142532 52.104656 -64.179688 -9.687500 2.060547 -167.353165 18.719131 -12.532744 -2.996504 -21.982422 7.128907 2.597656 51.063168 8.107644 2.471410 -61.611332 -2.587890 -0.488281 2.000000 -2.000000 0.000000 -57.499996 5.810547 -102.040031 -69.547668 -0.715918 -2.937731 -32.133404 40.309967 -53.546440 -2.000000 2.000000 0.000000 69.169922 -45.849609 -29.736328 84.459671 0.422875 -2.945024 -43.880547 -56.744698 42.617996 -0.974552 2.630331 7.763234 12.247340 -5.712561 -1.179664 -11.287408 7.956603 0.701460 3.785985 -14.442056 -50.265369 13.872720 4.513587 1.267861 -5.628538 -2.232796 8.339611 
